<?xml version="1.0" encoding="UTF-8" standalone="no"?><!DOCTYPE svg PUBLIC "-//W3C//DTD SVG 1.1//EN" "http://www.w3.org/Graphics/SVG/1.1/DTD/svg11.dtd"><svg width="100%" height="100%" viewBox="0 0 48 48" version="1.1" xmlns="http://www.w3.org/2000/svg" xmlns:xlink="http://www.w3.org/1999/xlink" xml:space="preserve" xmlns:serif="http://www.serif.com/" style="fill-rule:evenodd;clip-rule:evenodd;"><path d="M45.391,41.783l-42.782,-0c-1.441,-0 -2.609,-1.168 -2.609,-2.609l0,-32.348c0,-1.441 1.168,-2.609 2.609,-2.609l12.101,0c1.585,0 3.083,0.72 4.074,1.959l2.607,3.259l24,-0c1.441,-0 2.609,1.167 2.609,2.608l0,27.131c0,1.441 -1.168,2.609 -2.609,2.609Z" style="fill:url(#_Linear1);fill-rule:nonzero;"/><path d="M0,38.652l0,0.522c0,1.441 1.168,2.609 2.609,2.609l42.782,-0c1.441,-0 2.609,-1.168 2.609,-2.609l-0,-0.522l-48,0Z" style="fill:url(#_Linear2);fill-rule:nonzero;"/><path d="M45.391,10.478l-24,0l-1.29,0.86c-1.199,0.8 -2.609,1.227 -4.051,1.227l-13.441,0c-1.441,0 -2.609,1.168 -2.609,2.609l0,22.956c0,1.441 1.168,2.609 2.609,2.609l42.782,0c1.441,0 2.609,-1.168 2.609,-2.609l0,-25.043c0,-1.441 -1.168,-2.609 -2.609,-2.609Z" style="fill:url(#_Linear3);fill-rule:nonzero;"/><path d="M45.391,40.739l-42.782,0c-1.441,0 -2.609,-1.168 -2.609,-2.609l0,-21.913c0,-1.441 1.168,-2.608 2.609,-2.608l13.832,-0c1.442,-0 2.852,-0.427 4.052,-1.227l1.29,-0.86l23.608,-0c1.441,-0 2.609,1.167 2.609,2.608l0,24c0,1.441 -1.168,2.609 -2.609,2.609Z" style="fill:url(#_Radial4);fill-rule:nonzero;"/><g><clipPath id="_clip5"><rect id="tmp27A9.tmp" x="10.454" y="12.584" width="27.092" height="27.092"/></clipPath><g clip-path="url(#_clip5)"><path d="M13.84,26.13l-3.386,0m13.546,-10.159l0,-3.387m9.578,23.125l-2.394,-2.395m-14.368,-14.368l-2.394,-2.394m2.394,16.762l-2.394,2.395m-0.582,-9.579l-3.386,0" style="fill:#fff;fill-rule:nonzero;stroke:#fff;stroke-width:2.26px;"/><g><path d="M29.214,25.002l3.147,-0l-0.232,2.004c-0.017,0.145 -0.139,0.253 -0.285,0.253l-2.113,0c-0.145,0 -0.267,-0.108 -0.284,-0.253l-0.233,-2.004Zm3.147,-6.774l-3.147,0l0.233,-2.004c0.017,-0.145 0.139,-0.253 0.284,-0.253l2.113,-0c0.146,-0 0.268,0.108 0.285,0.253l0.232,2.004Zm2.146,3.056l-1.573,-2.726l1.852,-0.8c0.133,-0.058 0.289,-0.007 0.361,0.119l1.057,1.83c0.072,0.127 0.039,0.287 -0.077,0.373l-1.62,1.204Zm-7.439,0.662l1.574,2.726l-1.853,0.8c-0.133,0.058 -0.289,0.007 -0.361,-0.119l-1.056,-1.83c-0.073,-0.127 -0.04,-0.287 0.076,-0.373l1.62,-1.204Zm1.574,-3.387l-1.574,2.726l-1.62,-1.204c-0.116,-0.087 -0.15,-0.247 -0.076,-0.373l1.056,-1.829c0.072,-0.127 0.228,-0.178 0.361,-0.12l1.853,0.8Zm4.292,6.112l1.573,-2.726l1.62,1.203c0.116,0.087 0.15,0.247 0.077,0.373l-1.057,1.829c-0.072,0.127 -0.228,0.178 -0.361,0.12l-1.852,-0.799Z" style="fill:#fff;fill-rule:nonzero;"/><path d="M30.788,26.13c2.493,0 4.515,-2.021 4.515,-4.515c0,-2.494 -2.022,-4.515 -4.515,-4.515c-2.494,-0 -4.516,2.021 -4.516,4.515c0,2.494 2.022,4.515 4.516,4.515Zm-0,-6.49c1.09,-0 1.975,0.885 1.975,1.975c0,1.092 -0.885,1.976 -1.975,1.976c-1.091,-0 -1.976,-0.884 -1.976,-1.976c0,-1.09 0.885,-1.975 1.976,-1.975Z" style="fill:#fff;fill-rule:nonzero;"/></g><path d="M30.773,29.517c-0.72,-0 -1.413,-0.105 -2.076,-0.284c-0.662,1 -1.632,1.794 -2.816,2.212l-0.752,0.266l-0,4.579l-2.258,0l0,-4.579l-0.753,-0.266c-2.25,-0.796 -3.762,-2.932 -3.762,-5.315c-0,-2.751 1.981,-5.041 4.589,-5.537c0.107,-0.829 0.344,-1.617 0.688,-2.345c-4.187,0.193 -7.535,3.649 -7.535,7.882c0,3.065 1.785,5.837 4.515,7.133l0,3.027c0,1.245 1.013,2.258 2.258,2.258l2.258,-0c1.245,-0 2.258,-1.013 2.258,-2.258l-0,-3.027c1.669,-0.793 2.977,-2.14 3.748,-3.765c-0.12,0.007 -0.24,0.019 -0.362,0.019Z" style="fill:#fff;fill-rule:nonzero;"/></g><g id="tmp27A9.tmp1" serif:id="tmp27A9.tmp"></g></g><defs><linearGradient id="_Linear1" x1="0" y1="0" x2="1" y2="0" gradientUnits="userSpaceOnUse" gradientTransform="matrix(48.4226,25.2783,-25.2783,48.4226,-8.36661,8.7127)"><stop offset="0" style="stop-color:#057dc9;stop-opacity:1"/><stop offset="0.91" style="stop-color:#1362ad;stop-opacity:1"/><stop offset="1" style="stop-color:#1362ad;stop-opacity:1"/></linearGradient><linearGradient id="_Linear2" x1="0" y1="0" x2="1" y2="0" gradientUnits="userSpaceOnUse" gradientTransform="matrix(29.3207,0.528,-0.528,29.3207,16.5548,40.0598)"><stop offset="0" style="stop-color:#085aa3;stop-opacity:1"/><stop offset="0.46" style="stop-color:#024589;stop-opacity:1"/><stop offset="1" style="stop-color:#024589;stop-opacity:1"/></linearGradient><linearGradient id="_Linear3" x1="0" y1="0" x2="1" y2="0" gradientUnits="userSpaceOnUse" gradientTransform="matrix(42.623,18.7972,-18.7972,42.623,-6.13461,12.319)"><stop offset="0" style="stop-color:#5fc2f9;stop-opacity:1"/><stop offset="0.34" style="stop-color:#5fc2f9;stop-opacity:1"/><stop offset="0.5" style="stop-color:#5abff7;stop-opacity:1"/><stop offset="0.68" style="stop-color:#4cb6f0;stop-opacity:1"/><stop offset="0.88" style="stop-color:#36a7e5;stop-opacity:1"/><stop offset="1" style="stop-color:#239bdc;stop-opacity:1"/></linearGradient><radialGradient id="_Radial4" cx="0" cy="0" r="1" gradientUnits="userSpaceOnUse" gradientTransform="matrix(56.2174,0,0,56.2174,38.4376,50.4612)"><stop offset="0" style="stop-color:#0b6bbf;stop-opacity:1"/><stop offset="0.2" style="stop-color:#0b6bbf;stop-opacity:1"/><stop offset="0.6" style="stop-color:#1992d7;stop-opacity:1"/><stop offset="0.84" style="stop-color:#32a7e4;stop-opacity:1"/><stop offset="1" style="stop-color:#3eb2eb;stop-opacity:1"/></radialGradient></defs></svg>